Coordinates
version=1
nRows=13
nColumns=40
inDegrees=yes

Units are S.I. units (second, meters, Newtons, ...)
Angles are in degrees.

endheader
time	pelvis_tilt	pelvis_list	pelvis_rotation	pelvis_tx	pelvis_ty	pelvis_tz	hip_flexion_r	hip_adduction_r	hip_rotation_r	knee_angle_r	knee_angle_r_beta	ankle_angle_r	subtalar_angle_r	mtp_angle_r	hip_flexion_l	hip_adduction_l	hip_rotation_l	knee_angle_l	knee_angle_l_beta	ankle_angle_l	subtalar_angle_l	mtp_angle_l	lumbar_extension	lumbar_bending	lumbar_rotation	arm_flex_r	arm_add_r	arm_rot_r	elbow_flex_r	pro_sup_r	wrist_flex_r	wrist_dev_r	arm_flex_l	arm_add_l	arm_rot_l	elbow_flex_l	pro_sup_l	wrist_flex_l	wrist_dev_l
      0.77000000	     -2.11344502	     -4.93067340	      1.23219893	     -0.82330326	      0.89006229	      1.41579942	     23.49758133	      2.40160274	    -16.83426007	    -18.24430760	     -0.31842324	     -6.33623328	      0.47716613	     -3.81370564	     -7.38188971	      5.74178348	      3.43745130	    -24.95311321	     -0.43551398	      9.02931662	      1.33942219	     -8.82865702	     -7.19721649	      9.02610844	     -3.66286965	      1.58133720	     -9.17694123	     14.28104681	     14.21583296	     89.95437384	      0.00000000	      0.00000000	     13.67552660	      9.78660928	    -10.08968789	     32.16488147	     89.95437384	      0.00000000	      0.00000000
      0.78000000	     -2.19822183	     -5.12895295	      1.07466288	     -0.81324183	      0.89144889	      1.41766061	     22.93229061	      2.78182982	    -16.71402886	    -18.38842717	     -0.32093860	     -5.74056627	      0.83966110	     -3.82074666	     -6.94543969	      6.09907736	      3.57881313	    -26.56033168	     -0.46356524	      7.45922292	      1.67104064	     -8.55011963	     -6.96172195	      9.23670392	     -3.40341196	      1.59954144	     -9.25734027	     14.54059639	     14.00338840	     89.95437384	      0.00000000	      0.00000000	     13.15114974	      9.47925513	     -9.99048238	     31.28014055	     89.95437384	      0.00000000	      0.00000000
      0.79000000	     -2.26637348	     -5.31878245	      0.85153652	     -0.80306507	      0.89281179	      1.41972544	     22.28339679	      3.17642081	    -16.62637677	    -18.42397968	     -0.32155911	     -5.11880221	      1.17103240	     -3.81769978	     -6.38119353	      6.47698814	      3.93521069	    -28.40085266	     -0.49568839	      5.58685724	      2.07273800	     -8.25595304	     -6.71137124	      9.40687087	     -3.07828670	      1.60140134	     -9.32367318	     14.81332176	     13.80501515	     89.95437384	      0.00000000	      0.00000000	     12.54784823	      9.21640068	     -9.85184080	     30.49579591	     89.95437384	      0.00000000	      0.00000000
      0.80000000	     -2.47121337	     -5.82200305	      0.68001300	     -0.79285535	      0.89377162	      1.42211594	     21.69458105	      3.92807869	    -16.66538388	    -18.25993318	     -0.31869596	     -4.58083956	      1.67624537	     -3.51158471	     -5.36728238	      7.52134618	      5.03123855	    -30.67922660	     -0.53545352	      3.29281786	      0.99649398	     -9.16221484	     -6.29669852	      9.88547954	     -2.78549600	      1.52211298	     -9.58660001	     16.08070797	     13.85594814	     89.95437384	      0.00000000	      0.00000000	     11.81614393	      8.97776247	     -9.70696736	     29.79974335	     89.95437384	      0.00000000	      0.00000000
      0.81000000	     -2.51834263	     -5.96586245	      0.52764823	     -0.78278471	      0.89498625	      1.42417342	     20.96110160	      4.27963559	    -16.57426801	    -18.15841655	     -0.31692416	     -4.01410929	      2.12814826	     -3.49404624	     -4.50462999	      7.92856635	      5.48758251	    -32.85709706	     -0.57346453	      0.99535383	      1.86739281	     -8.86966448	     -6.10360796	      9.99724219	     -2.51274433	      1.56178195	     -9.66366102	     16.19801216	     13.79313385	     89.95437384	      0.00000000	      0.00000000	     11.24777545	      8.80669542	     -9.80485661	     28.92999571	     89.95437384	      0.00000000	      0.00000000
      0.82000000	     -2.50277826	     -6.01695243	      0.33471072	     -0.77288902	      0.89611051	      1.42624105	     20.18182922	      4.53763767	    -16.52175227	    -18.08679702	     -0.31567416	     -3.44113076	      2.49868311	     -3.51449723	     -3.57025345	      8.25577004	      6.05387054	    -35.14610220	     -0.61341520	     -1.40472648	      2.74417882	     -8.51422971	     -5.98581310	      9.99308709	     -2.18307844	      1.68765635	     -9.72966912	     16.37380790	     13.66423036	     89.95437384	      0.00000000	      0.00000000	     10.81000490	      8.60803861	     -9.84646955	     27.89415965	     89.95437384	      0.00000000	      0.00000000
      0.83000000	     -2.55583405	     -6.11949812	      0.18905334	     -0.76318341	      0.89690097	      1.42822066	     19.48147924	      4.83852256	    -16.55922055	    -17.99745444	     -0.31411484	     -2.83674913	      2.91637388	     -3.54723598	     -2.40915415	      8.64618446	      6.46383733	    -37.52195931	     -0.65488173	     -3.96254021	      3.53771913	     -8.20483344	     -5.81994110	     10.04179677	     -1.87569349	      1.78058072	     -9.84816339	     16.54030787	     13.69468709	     89.95437384	      0.00000000	      0.00000000	     10.30361795	      8.44811687	    -10.00186644	     26.96894419	     89.95437384	      0.00000000	      0.00000000
      0.84000000	     -2.59196813	     -6.21221427	      0.16127236	     -0.75372139	      0.89744651	      1.43008124	     18.79830247	      5.08950575	    -16.70237324	    -17.92522240	     -0.31285415	     -2.17937923	      3.32895276	     -3.61328635	     -1.12195564	      9.06416674	      6.71372776	    -40.01044076	     -0.69831393	     -6.83116043	      4.73798754	     -7.85773623	     -5.71429986	     10.08281979	     -1.62789870	      1.92095257	     -9.98673748	     16.76858258	     13.77168587	     89.95437384	      0.00000000	      0.00000000	      9.82229773	      8.33078018	    -10.13722236	     26.17254449	     89.95437384	      0.00000000	      0.00000000
      0.85000000	     -2.52986124	     -6.32498973	      0.17313196	     -0.74433176	      0.89788180	      1.43189998	     18.02469139	      5.34598696	    -16.82898047	    -17.91232305	     -0.31262901	     -1.50707507	      3.83344469	     -3.72913624	      0.14837979	      9.42996998	      6.68719905	    -42.59206215	     -0.74337172	     -8.39158534	      5.88269619	     -7.76545693	     -5.69523815	     10.12494600	     -1.38063635	      2.07491958	    -10.12159493	     17.01112015	     13.87242263	     89.95437384	      0.00000000	      0.00000000	      9.41247028	      8.19974517	    -10.25423490	     25.31268084	     89.95437384	      0.00000000	      0.00000000
      0.86000000	     -2.68356859	     -6.42430727	      0.26789449	     -0.73576118	      0.89778341	      1.43335574	     17.70281380	      5.43320666	    -17.30682869	    -18.21001951	     -0.31782480	     -0.84290123	      4.62503760	     -3.95493389	      1.86306319	      9.68124082	      6.37565433	    -45.32718633	     -0.79110864	     -8.17609816	      7.66104745	     -8.28721675	     -5.54938620	     10.17975825	     -1.30926913	      2.33539326	    -10.38520855	     17.68202919	     14.17154907	     89.95437384	      0.00000000	      0.00000000	      9.10062609	      8.07839924	    -10.37524838	     24.35001025	     89.95437384	      0.00000000	      0.00000000
      0.87000000	     -2.25870818	     -6.59735086	      0.26025713	     -0.72660910	      0.89847787	      1.43511400	     16.57543632	      5.75984240	    -17.36105485	    -18.25041961	     -0.31852991	     -0.03095823	      5.01737182	     -4.11390578	      2.72446953	     10.09806569	      6.50654925	    -47.61447513	     -0.83102936	     -7.53091988	      8.47928590	     -8.41568212	     -6.03611248	     10.27344482	     -1.01791304	      2.75049822	    -10.51365856	     17.84159772	     14.16840242	     89.95437384	      0.00000000	      0.00000000	      8.81151492	      7.94711737	    -10.33495146	     23.48551417	     89.95437384	      0.00000000	      0.00000000
      0.88000000	     -1.86688149	     -6.74522572	      0.37029292	     -0.71771745	      0.89897788	      1.43651801	     15.50940301	      6.01869331	    -17.42044466	    -18.29251528	     -0.31926462	      0.68185870	      5.43209590	     -4.27385510	      3.78339591	     10.41445463	      6.41009474	    -49.88588380	     -0.87067292	     -6.45812016	      9.00040013	     -8.65109068	     -6.47678256	     10.35321554	     -0.78859334	      3.17481779	    -10.67678988	     18.02734585	     14.19690327	     89.95437384	      0.00000000	      0.00000000	      8.66195634	      7.77095503	    -10.40515678	     22.38920563	     89.95437384	      0.00000000	      0.00000000
      0.89000000	     -1.50578555	     -6.87400839	      0.55693745	     -0.70910390	      0.89943197	      1.43775218	     14.51217700	      6.26080909	    -17.48861620	    -18.35459411	     -0.32034810	      1.40669185	      5.75346753	     -4.43414478	      4.94124499	     10.69354150	      6.17743580	    -51.97194908	     -0.90708163	     -5.23609731	      9.17294190	     -8.98345933	     -6.92718343	     10.41234931	     -0.66753343	      3.61879534	    -10.86163574	     18.27629524	     14.37601213	     89.95437384	      0.00000000	      0.00000000	      8.45097889	      7.65421953	    -10.56888369	     21.47945348	     89.95437384	      0.00000000	      0.00000000
